<mxfile host="app.diagrams.net" modified="2024-03-11T14:21:15.375Z" agent="Mozilla/5.0 (Windows NT 10.0; Win64; x64; rv:122.0) Gecko/20100101 Firefox/122.0" etag="bznKxcS7WHmHwfNd8Zah" version="24.0.4" type="github">
  <diagram id="C5RBs43oDa-KdzZeNtuy" name="Page-1">
    <mxGraphModel dx="1462" dy="410" grid="1" gridSize="10" guides="1" tooltips="1" connect="1" arrows="1" fold="1" page="1" pageScale="1" pageWidth="827" pageHeight="1169" math="0" shadow="0">
      <root>
        <mxCell id="WIyWlLk6GJQsqaUBKTNV-0" />
        <mxCell id="WIyWlLk6GJQsqaUBKTNV-1" parent="WIyWlLk6GJQsqaUBKTNV-0" />
        <mxCell id="kydSZznh4QnMIO99EbYt-38" style="edgeStyle=orthogonalEdgeStyle;rounded=0;orthogonalLoop=1;jettySize=auto;html=1;entryX=0;entryY=0.5;entryDx=0;entryDy=0;" edge="1" parent="WIyWlLk6GJQsqaUBKTNV-1" source="37fT_qkGv5rjHFNZWy28-0" target="37fT_qkGv5rjHFNZWy28-4">
          <mxGeometry relative="1" as="geometry" />
        </mxCell>
        <mxCell id="37fT_qkGv5rjHFNZWy28-0" value="&lt;div&gt;program start&lt;/div&gt;" style="rounded=1;whiteSpace=wrap;html=1;arcSize=50;" parent="WIyWlLk6GJQsqaUBKTNV-1" vertex="1">
          <mxGeometry x="320" y="200" width="120" height="60" as="geometry" />
        </mxCell>
        <mxCell id="37fT_qkGv5rjHFNZWy28-4" value="&lt;div&gt;[Update system &lt;br&gt;&lt;/div&gt;&lt;div&gt;Infomation]&lt;br&gt;&lt;/div&gt;" style="rounded=1;whiteSpace=wrap;html=1;" parent="WIyWlLk6GJQsqaUBKTNV-1" vertex="1">
          <mxGeometry x="640" y="200" width="120" height="60" as="geometry" />
        </mxCell>
        <mxCell id="37fT_qkGv5rjHFNZWy28-22" value="" style="endArrow=classic;html=1;rounded=0;exitX=0.5;exitY=1;exitDx=0;exitDy=0;" parent="WIyWlLk6GJQsqaUBKTNV-1" source="37fT_qkGv5rjHFNZWy28-4" target="37fT_qkGv5rjHFNZWy28-23" edge="1">
          <mxGeometry width="50" height="50" relative="1" as="geometry">
            <mxPoint x="670" y="330" as="sourcePoint" />
            <mxPoint x="700" y="320" as="targetPoint" />
          </mxGeometry>
        </mxCell>
        <mxCell id="37fT_qkGv5rjHFNZWy28-23" value="update Cpu Info" style="rounded=1;whiteSpace=wrap;html=1;" parent="WIyWlLk6GJQsqaUBKTNV-1" vertex="1">
          <mxGeometry x="640" y="320" width="120" height="60" as="geometry" />
        </mxCell>
        <mxCell id="37fT_qkGv5rjHFNZWy28-24" value="" style="endArrow=classic;html=1;rounded=0;exitX=0.5;exitY=1;exitDx=0;exitDy=0;" parent="WIyWlLk6GJQsqaUBKTNV-1" source="37fT_qkGv5rjHFNZWy28-23" target="37fT_qkGv5rjHFNZWy28-25" edge="1">
          <mxGeometry width="50" height="50" relative="1" as="geometry">
            <mxPoint x="710" y="420" as="sourcePoint" />
            <mxPoint x="700" y="440" as="targetPoint" />
          </mxGeometry>
        </mxCell>
        <mxCell id="kydSZznh4QnMIO99EbYt-30" style="edgeStyle=orthogonalEdgeStyle;rounded=0;orthogonalLoop=1;jettySize=auto;html=1;entryX=0.5;entryY=0;entryDx=0;entryDy=0;" edge="1" parent="WIyWlLk6GJQsqaUBKTNV-1" source="37fT_qkGv5rjHFNZWy28-25" target="37fT_qkGv5rjHFNZWy28-26">
          <mxGeometry relative="1" as="geometry" />
        </mxCell>
        <mxCell id="37fT_qkGv5rjHFNZWy28-25" value="&lt;div&gt;Update Memory Table&lt;/div&gt;" style="rounded=1;whiteSpace=wrap;html=1;" parent="WIyWlLk6GJQsqaUBKTNV-1" vertex="1">
          <mxGeometry x="640" y="440" width="120" height="60" as="geometry" />
        </mxCell>
        <mxCell id="37fT_qkGv5rjHFNZWy28-26" value="&lt;div&gt;Update Trace table&lt;/div&gt;" style="rounded=1;whiteSpace=wrap;html=1;" parent="WIyWlLk6GJQsqaUBKTNV-1" vertex="1">
          <mxGeometry x="640" y="600" width="120" height="60" as="geometry" />
        </mxCell>
        <mxCell id="37fT_qkGv5rjHFNZWy28-27" value="tracked Variables changed?" style="rhombus;whiteSpace=wrap;html=1;" parent="WIyWlLk6GJQsqaUBKTNV-1" vertex="1">
          <mxGeometry x="640" y="720" width="120" height="80" as="geometry" />
        </mxCell>
        <mxCell id="37fT_qkGv5rjHFNZWy28-28" value="" style="endArrow=classic;html=1;rounded=0;exitX=0.5;exitY=1;exitDx=0;exitDy=0;entryX=0.5;entryY=0;entryDx=0;entryDy=0;" parent="WIyWlLk6GJQsqaUBKTNV-1" source="37fT_qkGv5rjHFNZWy28-26" target="37fT_qkGv5rjHFNZWy28-27" edge="1">
          <mxGeometry width="50" height="50" relative="1" as="geometry">
            <mxPoint x="710" y="740" as="sourcePoint" />
            <mxPoint x="760" y="690" as="targetPoint" />
          </mxGeometry>
        </mxCell>
        <mxCell id="37fT_qkGv5rjHFNZWy28-32" value="" style="endArrow=classic;html=1;rounded=0;exitX=0;exitY=0.5;exitDx=0;exitDy=0;entryX=0.5;entryY=0;entryDx=0;entryDy=0;" parent="WIyWlLk6GJQsqaUBKTNV-1" source="37fT_qkGv5rjHFNZWy28-27" target="37fT_qkGv5rjHFNZWy28-34" edge="1">
          <mxGeometry relative="1" as="geometry">
            <mxPoint x="690" y="850" as="sourcePoint" />
            <mxPoint x="560" y="840" as="targetPoint" />
            <Array as="points">
              <mxPoint x="580" y="760" />
            </Array>
          </mxGeometry>
        </mxCell>
        <mxCell id="37fT_qkGv5rjHFNZWy28-33" value="&lt;div&gt;No&lt;/div&gt;" style="edgeLabel;resizable=0;html=1;;align=center;verticalAlign=middle;" parent="37fT_qkGv5rjHFNZWy28-32" connectable="0" vertex="1">
          <mxGeometry relative="1" as="geometry">
            <mxPoint x="30" y="-20" as="offset" />
          </mxGeometry>
        </mxCell>
        <mxCell id="kydSZznh4QnMIO99EbYt-11" style="edgeStyle=orthogonalEdgeStyle;rounded=0;orthogonalLoop=1;jettySize=auto;html=1;entryX=0.5;entryY=0;entryDx=0;entryDy=0;exitX=0.5;exitY=1;exitDx=0;exitDy=0;" edge="1" parent="WIyWlLk6GJQsqaUBKTNV-1" source="37fT_qkGv5rjHFNZWy28-34" target="kydSZznh4QnMIO99EbYt-31">
          <mxGeometry relative="1" as="geometry" />
        </mxCell>
        <mxCell id="37fT_qkGv5rjHFNZWy28-34" value="Get updated Variables" style="rounded=1;whiteSpace=wrap;html=1;" parent="WIyWlLk6GJQsqaUBKTNV-1" vertex="1">
          <mxGeometry x="520" y="840" width="120" height="60" as="geometry" />
        </mxCell>
        <mxCell id="37fT_qkGv5rjHFNZWy28-35" value="testing mode enabled?" style="rhombus;whiteSpace=wrap;html=1;" parent="WIyWlLk6GJQsqaUBKTNV-1" vertex="1">
          <mxGeometry x="520" y="1200" width="120" height="80" as="geometry" />
        </mxCell>
        <mxCell id="kydSZznh4QnMIO99EbYt-6" value="" style="endArrow=classic;html=1;rounded=0;exitX=0.5;exitY=1;exitDx=0;exitDy=0;" edge="1" parent="WIyWlLk6GJQsqaUBKTNV-1" source="37fT_qkGv5rjHFNZWy28-35">
          <mxGeometry relative="1" as="geometry">
            <mxPoint x="550" y="1250" as="sourcePoint" />
            <mxPoint x="580" y="1320" as="targetPoint" />
          </mxGeometry>
        </mxCell>
        <mxCell id="kydSZznh4QnMIO99EbYt-7" value="&lt;div&gt;No&lt;br&gt;&lt;/div&gt;" style="edgeLabel;resizable=0;html=1;;align=center;verticalAlign=middle;" connectable="0" vertex="1" parent="kydSZznh4QnMIO99EbYt-6">
          <mxGeometry relative="1" as="geometry">
            <mxPoint x="1" as="offset" />
          </mxGeometry>
        </mxCell>
        <mxCell id="kydSZznh4QnMIO99EbYt-8" value="Display New variables" style="rounded=1;whiteSpace=wrap;html=1;" vertex="1" parent="WIyWlLk6GJQsqaUBKTNV-1">
          <mxGeometry x="520" y="1320" width="120" height="60" as="geometry" />
        </mxCell>
        <mxCell id="kydSZznh4QnMIO99EbYt-12" style="edgeStyle=orthogonalEdgeStyle;rounded=0;orthogonalLoop=1;jettySize=auto;html=1;" edge="1" parent="WIyWlLk6GJQsqaUBKTNV-1" source="kydSZznh4QnMIO99EbYt-10" target="37fT_qkGv5rjHFNZWy28-35">
          <mxGeometry relative="1" as="geometry" />
        </mxCell>
        <mxCell id="kydSZznh4QnMIO99EbYt-10" value="Add new variables to table" style="rounded=1;whiteSpace=wrap;html=1;" vertex="1" parent="WIyWlLk6GJQsqaUBKTNV-1">
          <mxGeometry x="520" y="1080" width="120" height="60" as="geometry" />
        </mxCell>
        <mxCell id="kydSZznh4QnMIO99EbYt-15" value="" style="endArrow=classic;html=1;rounded=0;exitX=1;exitY=0.5;exitDx=0;exitDy=0;entryX=0.5;entryY=0;entryDx=0;entryDy=0;" edge="1" parent="WIyWlLk6GJQsqaUBKTNV-1" source="37fT_qkGv5rjHFNZWy28-27" target="kydSZznh4QnMIO99EbYt-18">
          <mxGeometry relative="1" as="geometry">
            <mxPoint x="640" y="790" as="sourcePoint" />
            <mxPoint x="850" y="800" as="targetPoint" />
            <Array as="points">
              <mxPoint x="820" y="760" />
            </Array>
          </mxGeometry>
        </mxCell>
        <mxCell id="kydSZznh4QnMIO99EbYt-17" value="&lt;div&gt;yes&lt;/div&gt;" style="edgeLabel;resizable=0;html=1;;align=left;verticalAlign=bottom;" connectable="0" vertex="1" parent="kydSZznh4QnMIO99EbYt-15">
          <mxGeometry x="-1" relative="1" as="geometry">
            <mxPoint x="30" as="offset" />
          </mxGeometry>
        </mxCell>
        <mxCell id="kydSZznh4QnMIO99EbYt-26" style="edgeStyle=orthogonalEdgeStyle;rounded=0;orthogonalLoop=1;jettySize=auto;html=1;exitX=0.5;exitY=1;exitDx=0;exitDy=0;" edge="1" parent="WIyWlLk6GJQsqaUBKTNV-1" source="kydSZznh4QnMIO99EbYt-18" target="kydSZznh4QnMIO99EbYt-21">
          <mxGeometry relative="1" as="geometry" />
        </mxCell>
        <mxCell id="kydSZznh4QnMIO99EbYt-18" value="get new tracked variables from assembler" style="rounded=1;whiteSpace=wrap;html=1;" vertex="1" parent="WIyWlLk6GJQsqaUBKTNV-1">
          <mxGeometry x="760" y="840" width="120" height="60" as="geometry" />
        </mxCell>
        <mxCell id="kydSZznh4QnMIO99EbYt-29" style="edgeStyle=orthogonalEdgeStyle;rounded=0;orthogonalLoop=1;jettySize=auto;html=1;entryX=1;entryY=0.5;entryDx=0;entryDy=0;" edge="1" parent="WIyWlLk6GJQsqaUBKTNV-1" source="kydSZznh4QnMIO99EbYt-19" target="37fT_qkGv5rjHFNZWy28-34">
          <mxGeometry relative="1" as="geometry" />
        </mxCell>
        <mxCell id="kydSZznh4QnMIO99EbYt-19" value="generate new headers" style="rounded=1;whiteSpace=wrap;html=1;" vertex="1" parent="WIyWlLk6GJQsqaUBKTNV-1">
          <mxGeometry x="760" y="1200" width="120" height="60" as="geometry" />
        </mxCell>
        <mxCell id="kydSZznh4QnMIO99EbYt-21" value="testing mode enabled?" style="rhombus;whiteSpace=wrap;html=1;" vertex="1" parent="WIyWlLk6GJQsqaUBKTNV-1">
          <mxGeometry x="760" y="960" width="120" height="80" as="geometry" />
        </mxCell>
        <mxCell id="kydSZznh4QnMIO99EbYt-22" value="" style="endArrow=classic;html=1;rounded=0;exitX=0.5;exitY=1;exitDx=0;exitDy=0;entryX=0.5;entryY=0;entryDx=0;entryDy=0;" edge="1" parent="WIyWlLk6GJQsqaUBKTNV-1" source="kydSZznh4QnMIO99EbYt-21" target="kydSZznh4QnMIO99EbYt-24">
          <mxGeometry relative="1" as="geometry">
            <mxPoint x="790" y="1130" as="sourcePoint" />
            <mxPoint x="820" y="1200" as="targetPoint" />
          </mxGeometry>
        </mxCell>
        <mxCell id="kydSZznh4QnMIO99EbYt-23" value="&lt;div&gt;No&lt;br&gt;&lt;/div&gt;" style="edgeLabel;resizable=0;html=1;;align=center;verticalAlign=middle;" connectable="0" vertex="1" parent="kydSZznh4QnMIO99EbYt-22">
          <mxGeometry relative="1" as="geometry">
            <mxPoint x="1" as="offset" />
          </mxGeometry>
        </mxCell>
        <mxCell id="kydSZznh4QnMIO99EbYt-27" style="edgeStyle=orthogonalEdgeStyle;rounded=0;orthogonalLoop=1;jettySize=auto;html=1;exitX=0.5;exitY=1;exitDx=0;exitDy=0;entryX=0.5;entryY=0;entryDx=0;entryDy=0;" edge="1" parent="WIyWlLk6GJQsqaUBKTNV-1" source="kydSZznh4QnMIO99EbYt-24" target="kydSZznh4QnMIO99EbYt-19">
          <mxGeometry relative="1" as="geometry" />
        </mxCell>
        <mxCell id="kydSZznh4QnMIO99EbYt-24" value="&lt;div&gt;add specific registers to tracked variables&lt;/div&gt;" style="rounded=1;whiteSpace=wrap;html=1;" vertex="1" parent="WIyWlLk6GJQsqaUBKTNV-1">
          <mxGeometry x="760" y="1080" width="120" height="60" as="geometry" />
        </mxCell>
        <mxCell id="kydSZznh4QnMIO99EbYt-28" style="edgeStyle=orthogonalEdgeStyle;rounded=0;orthogonalLoop=1;jettySize=auto;html=1;exitX=1;exitY=0.5;exitDx=0;exitDy=0;entryX=1.008;entryY=0.64;entryDx=0;entryDy=0;entryPerimeter=0;" edge="1" parent="WIyWlLk6GJQsqaUBKTNV-1" source="kydSZznh4QnMIO99EbYt-21" target="kydSZznh4QnMIO99EbYt-19">
          <mxGeometry relative="1" as="geometry" />
        </mxCell>
        <mxCell id="kydSZznh4QnMIO99EbYt-35" style="edgeStyle=orthogonalEdgeStyle;rounded=0;orthogonalLoop=1;jettySize=auto;html=1;entryX=0.5;entryY=0;entryDx=0;entryDy=0;" edge="1" parent="WIyWlLk6GJQsqaUBKTNV-1" source="kydSZznh4QnMIO99EbYt-31" target="kydSZznh4QnMIO99EbYt-34">
          <mxGeometry relative="1" as="geometry" />
        </mxCell>
        <mxCell id="kydSZznh4QnMIO99EbYt-36" value="&lt;div&gt;yes&lt;/div&gt;" style="edgeLabel;html=1;align=center;verticalAlign=middle;resizable=0;points=[];" vertex="1" connectable="0" parent="kydSZznh4QnMIO99EbYt-35">
          <mxGeometry x="-0.1222" y="-1" relative="1" as="geometry">
            <mxPoint as="offset" />
          </mxGeometry>
        </mxCell>
        <mxCell id="kydSZznh4QnMIO99EbYt-31" value="maximum depth reached?" style="rhombus;whiteSpace=wrap;html=1;" vertex="1" parent="WIyWlLk6GJQsqaUBKTNV-1">
          <mxGeometry x="520" y="960" width="120" height="80" as="geometry" />
        </mxCell>
        <mxCell id="kydSZznh4QnMIO99EbYt-32" value="" style="endArrow=classic;html=1;rounded=0;exitX=0.5;exitY=1;exitDx=0;exitDy=0;entryX=0.5;entryY=0;entryDx=0;entryDy=0;" edge="1" parent="WIyWlLk6GJQsqaUBKTNV-1" source="kydSZznh4QnMIO99EbYt-31" target="kydSZznh4QnMIO99EbYt-10">
          <mxGeometry relative="1" as="geometry">
            <mxPoint x="830" y="1050" as="sourcePoint" />
            <mxPoint x="830" y="1090" as="targetPoint" />
          </mxGeometry>
        </mxCell>
        <mxCell id="kydSZznh4QnMIO99EbYt-33" value="&lt;div&gt;No&lt;br&gt;&lt;/div&gt;" style="edgeLabel;resizable=0;html=1;;align=center;verticalAlign=middle;" connectable="0" vertex="1" parent="kydSZznh4QnMIO99EbYt-32">
          <mxGeometry relative="1" as="geometry">
            <mxPoint x="1" as="offset" />
          </mxGeometry>
        </mxCell>
        <mxCell id="kydSZznh4QnMIO99EbYt-37" style="edgeStyle=orthogonalEdgeStyle;rounded=0;orthogonalLoop=1;jettySize=auto;html=1;entryX=0;entryY=0.5;entryDx=0;entryDy=0;" edge="1" parent="WIyWlLk6GJQsqaUBKTNV-1" source="kydSZznh4QnMIO99EbYt-34" target="kydSZznh4QnMIO99EbYt-10">
          <mxGeometry relative="1" as="geometry" />
        </mxCell>
        <mxCell id="kydSZznh4QnMIO99EbYt-34" value="increase depth by depth step" style="rounded=1;whiteSpace=wrap;html=1;" vertex="1" parent="WIyWlLk6GJQsqaUBKTNV-1">
          <mxGeometry x="360" y="1080" width="120" height="60" as="geometry" />
        </mxCell>
        <mxCell id="kydSZznh4QnMIO99EbYt-44" style="edgeStyle=orthogonalEdgeStyle;rounded=0;orthogonalLoop=1;jettySize=auto;html=1;entryX=0.5;entryY=0;entryDx=0;entryDy=0;" edge="1" parent="WIyWlLk6GJQsqaUBKTNV-1" source="kydSZznh4QnMIO99EbYt-40" target="kydSZznh4QnMIO99EbYt-41">
          <mxGeometry relative="1" as="geometry" />
        </mxCell>
        <mxCell id="kydSZznh4QnMIO99EbYt-40" value="[Compile Assembly]" style="rounded=1;whiteSpace=wrap;html=1;" vertex="1" parent="WIyWlLk6GJQsqaUBKTNV-1">
          <mxGeometry x="-560" y="260" width="120" height="60" as="geometry" />
        </mxCell>
        <mxCell id="kydSZznh4QnMIO99EbYt-46" style="edgeStyle=orthogonalEdgeStyle;rounded=0;orthogonalLoop=1;jettySize=auto;html=1;entryX=0.5;entryY=0;entryDx=0;entryDy=0;" edge="1" parent="WIyWlLk6GJQsqaUBKTNV-1" source="kydSZznh4QnMIO99EbYt-41" target="kydSZznh4QnMIO99EbYt-45">
          <mxGeometry relative="1" as="geometry" />
        </mxCell>
        <mxCell id="kydSZznh4QnMIO99EbYt-41" value="split by lines and remove empty lines" style="rounded=1;whiteSpace=wrap;html=1;" vertex="1" parent="WIyWlLk6GJQsqaUBKTNV-1">
          <mxGeometry x="-560" y="380" width="120" height="60" as="geometry" />
        </mxCell>
        <mxCell id="kydSZznh4QnMIO99EbYt-48" style="edgeStyle=orthogonalEdgeStyle;rounded=0;orthogonalLoop=1;jettySize=auto;html=1;entryX=0.5;entryY=0;entryDx=0;entryDy=0;" edge="1" parent="WIyWlLk6GJQsqaUBKTNV-1" source="kydSZznh4QnMIO99EbYt-45" target="kydSZznh4QnMIO99EbYt-47">
          <mxGeometry relative="1" as="geometry" />
        </mxCell>
        <mxCell id="kydSZznh4QnMIO99EbYt-45" value="[preprocess assembly]" style="rounded=1;whiteSpace=wrap;html=1;" vertex="1" parent="WIyWlLk6GJQsqaUBKTNV-1">
          <mxGeometry x="-560" y="500" width="120" height="60" as="geometry" />
        </mxCell>
        <mxCell id="kydSZznh4QnMIO99EbYt-52" style="edgeStyle=orthogonalEdgeStyle;rounded=0;orthogonalLoop=1;jettySize=auto;html=1;entryX=0.5;entryY=0;entryDx=0;entryDy=0;" edge="1" parent="WIyWlLk6GJQsqaUBKTNV-1" source="kydSZznh4QnMIO99EbYt-47">
          <mxGeometry relative="1" as="geometry">
            <mxPoint x="-500" y="740" as="targetPoint" />
          </mxGeometry>
        </mxCell>
        <mxCell id="kydSZznh4QnMIO99EbYt-47" value="remove comments" style="rounded=1;whiteSpace=wrap;html=1;" vertex="1" parent="WIyWlLk6GJQsqaUBKTNV-1">
          <mxGeometry x="-560" y="620" width="120" height="60" as="geometry" />
        </mxCell>
        <mxCell id="kydSZznh4QnMIO99EbYt-55" style="edgeStyle=orthogonalEdgeStyle;rounded=0;orthogonalLoop=1;jettySize=auto;html=1;entryX=0.5;entryY=0;entryDx=0;entryDy=0;" edge="1" parent="WIyWlLk6GJQsqaUBKTNV-1" source="kydSZznh4QnMIO99EbYt-53" target="kydSZznh4QnMIO99EbYt-54">
          <mxGeometry relative="1" as="geometry" />
        </mxCell>
        <mxCell id="kydSZznh4QnMIO99EbYt-53" value="let preprocessorList = each line containing preprossesor character" style="shape=parallelogram;perimeter=parallelogramPerimeter;whiteSpace=wrap;html=1;fixedSize=1;" vertex="1" parent="WIyWlLk6GJQsqaUBKTNV-1">
          <mxGeometry x="-560" y="740" width="120" height="60" as="geometry" />
        </mxCell>
        <mxCell id="kydSZznh4QnMIO99EbYt-56" style="edgeStyle=orthogonalEdgeStyle;rounded=0;orthogonalLoop=1;jettySize=auto;html=1;" edge="1" parent="WIyWlLk6GJQsqaUBKTNV-1" source="kydSZznh4QnMIO99EbYt-54">
          <mxGeometry relative="1" as="geometry">
            <mxPoint x="-500" y="980" as="targetPoint" />
          </mxGeometry>
        </mxCell>
        <mxCell id="kydSZznh4QnMIO99EbYt-54" value="foreach instruction in preprocessorList" style="rhombus;whiteSpace=wrap;html=1;" vertex="1" parent="WIyWlLk6GJQsqaUBKTNV-1">
          <mxGeometry x="-560" y="860" width="120" height="80" as="geometry" />
        </mxCell>
        <mxCell id="kydSZznh4QnMIO99EbYt-58" style="edgeStyle=orthogonalEdgeStyle;rounded=0;orthogonalLoop=1;jettySize=auto;html=1;" edge="1" parent="WIyWlLk6GJQsqaUBKTNV-1" source="kydSZznh4QnMIO99EbYt-57" target="kydSZznh4QnMIO99EbYt-59">
          <mxGeometry relative="1" as="geometry">
            <mxPoint x="-600" y="1020" as="targetPoint" />
          </mxGeometry>
        </mxCell>
        <mxCell id="kydSZznh4QnMIO99EbYt-63" style="edgeStyle=orthogonalEdgeStyle;rounded=0;orthogonalLoop=1;jettySize=auto;html=1;" edge="1" parent="WIyWlLk6GJQsqaUBKTNV-1" source="kydSZznh4QnMIO99EbYt-57" target="kydSZznh4QnMIO99EbYt-62">
          <mxGeometry relative="1" as="geometry" />
        </mxCell>
        <mxCell id="kydSZznh4QnMIO99EbYt-57" value="instruction is to enable extended instructionset?" style="rhombus;whiteSpace=wrap;html=1;" vertex="1" parent="WIyWlLk6GJQsqaUBKTNV-1">
          <mxGeometry x="-560" y="980" width="120" height="80" as="geometry" />
        </mxCell>
        <mxCell id="kydSZznh4QnMIO99EbYt-65" style="edgeStyle=orthogonalEdgeStyle;rounded=0;orthogonalLoop=1;jettySize=auto;html=1;entryX=0;entryY=0.5;entryDx=0;entryDy=0;" edge="1" parent="WIyWlLk6GJQsqaUBKTNV-1" source="kydSZznh4QnMIO99EbYt-59" target="kydSZznh4QnMIO99EbYt-54">
          <mxGeometry relative="1" as="geometry">
            <Array as="points">
              <mxPoint x="-740" y="1020" />
              <mxPoint x="-740" y="900" />
            </Array>
          </mxGeometry>
        </mxCell>
        <mxCell id="kydSZznh4QnMIO99EbYt-59" value="enable extended instructionset" style="rounded=1;whiteSpace=wrap;html=1;" vertex="1" parent="WIyWlLk6GJQsqaUBKTNV-1">
          <mxGeometry x="-720" y="990" width="120" height="60" as="geometry" />
        </mxCell>
        <mxCell id="kydSZznh4QnMIO99EbYt-61" value="Yes" style="text;html=1;align=center;verticalAlign=middle;whiteSpace=wrap;rounded=0;" vertex="1" parent="WIyWlLk6GJQsqaUBKTNV-1">
          <mxGeometry x="-610" y="1000" width="60" height="30" as="geometry" />
        </mxCell>
        <mxCell id="kydSZznh4QnMIO99EbYt-70" style="edgeStyle=orthogonalEdgeStyle;rounded=0;orthogonalLoop=1;jettySize=auto;html=1;" edge="1" parent="WIyWlLk6GJQsqaUBKTNV-1" source="kydSZznh4QnMIO99EbYt-62" target="kydSZznh4QnMIO99EbYt-69">
          <mxGeometry relative="1" as="geometry" />
        </mxCell>
        <mxCell id="kydSZznh4QnMIO99EbYt-62" value="instruction is to include another file?" style="rhombus;whiteSpace=wrap;html=1;" vertex="1" parent="WIyWlLk6GJQsqaUBKTNV-1">
          <mxGeometry x="-560" y="1100" width="120" height="80" as="geometry" />
        </mxCell>
        <mxCell id="kydSZznh4QnMIO99EbYt-64" value="No" style="text;html=1;align=center;verticalAlign=middle;whiteSpace=wrap;rounded=0;" vertex="1" parent="WIyWlLk6GJQsqaUBKTNV-1">
          <mxGeometry x="-520" y="1060" width="60" height="30" as="geometry" />
        </mxCell>
        <mxCell id="kydSZznh4QnMIO99EbYt-66" value="" style="endArrow=classic;html=1;rounded=0;exitX=0;exitY=0.5;exitDx=0;exitDy=0;" edge="1" parent="WIyWlLk6GJQsqaUBKTNV-1" source="kydSZznh4QnMIO99EbYt-62">
          <mxGeometry width="50" height="50" relative="1" as="geometry">
            <mxPoint x="-560" y="1050" as="sourcePoint" />
            <mxPoint x="-560" y="900" as="targetPoint" />
            <Array as="points">
              <mxPoint x="-740" y="1140" />
              <mxPoint x="-740" y="900" />
            </Array>
          </mxGeometry>
        </mxCell>
        <mxCell id="kydSZznh4QnMIO99EbYt-67" value="No" style="text;html=1;align=center;verticalAlign=middle;whiteSpace=wrap;rounded=0;" vertex="1" parent="WIyWlLk6GJQsqaUBKTNV-1">
          <mxGeometry x="-620" y="1115" width="60" height="30" as="geometry" />
        </mxCell>
        <mxCell id="kydSZznh4QnMIO99EbYt-75" style="edgeStyle=orthogonalEdgeStyle;rounded=0;orthogonalLoop=1;jettySize=auto;html=1;" edge="1" parent="WIyWlLk6GJQsqaUBKTNV-1" source="kydSZznh4QnMIO99EbYt-69" target="kydSZznh4QnMIO99EbYt-72">
          <mxGeometry relative="1" as="geometry" />
        </mxCell>
        <mxCell id="kydSZznh4QnMIO99EbYt-76" style="edgeStyle=orthogonalEdgeStyle;rounded=0;orthogonalLoop=1;jettySize=auto;html=1;entryX=0.5;entryY=0;entryDx=0;entryDy=0;" edge="1" parent="WIyWlLk6GJQsqaUBKTNV-1" source="kydSZznh4QnMIO99EbYt-69" target="kydSZznh4QnMIO99EbYt-73">
          <mxGeometry relative="1" as="geometry" />
        </mxCell>
        <mxCell id="kydSZznh4QnMIO99EbYt-77" style="edgeStyle=orthogonalEdgeStyle;rounded=0;orthogonalLoop=1;jettySize=auto;html=1;exitX=1;exitY=0.5;exitDx=0;exitDy=0;entryX=0.5;entryY=0;entryDx=0;entryDy=0;" edge="1" parent="WIyWlLk6GJQsqaUBKTNV-1" source="kydSZznh4QnMIO99EbYt-69" target="kydSZznh4QnMIO99EbYt-74">
          <mxGeometry relative="1" as="geometry" />
        </mxCell>
        <mxCell id="kydSZznh4QnMIO99EbYt-69" value="Where?" style="rhombus;whiteSpace=wrap;html=1;" vertex="1" parent="WIyWlLk6GJQsqaUBKTNV-1">
          <mxGeometry x="-560" y="1220" width="120" height="80" as="geometry" />
        </mxCell>
        <mxCell id="kydSZznh4QnMIO99EbYt-71" value="&lt;div&gt;Yes&lt;/div&gt;" style="text;html=1;align=center;verticalAlign=middle;whiteSpace=wrap;rounded=0;" vertex="1" parent="WIyWlLk6GJQsqaUBKTNV-1">
          <mxGeometry x="-520" y="1180" width="60" height="30" as="geometry" />
        </mxCell>
        <mxCell id="kydSZznh4QnMIO99EbYt-72" value="add the contents of the file to the current code at the position of the current line" style="rounded=1;whiteSpace=wrap;html=1;" vertex="1" parent="WIyWlLk6GJQsqaUBKTNV-1">
          <mxGeometry x="-560" y="1340" width="120" height="60" as="geometry" />
        </mxCell>
        <mxCell id="kydSZznh4QnMIO99EbYt-73" value="add the contents of the file to the start of the current code" style="rounded=1;whiteSpace=wrap;html=1;" vertex="1" parent="WIyWlLk6GJQsqaUBKTNV-1">
          <mxGeometry x="-720" y="1340" width="120" height="60" as="geometry" />
        </mxCell>
        <mxCell id="kydSZznh4QnMIO99EbYt-74" value="add the contents of the file to the end of the current code" style="rounded=1;whiteSpace=wrap;html=1;" vertex="1" parent="WIyWlLk6GJQsqaUBKTNV-1">
          <mxGeometry x="-400" y="1340" width="120" height="60" as="geometry" />
        </mxCell>
        <mxCell id="kydSZznh4QnMIO99EbYt-78" value="First" style="text;html=1;align=center;verticalAlign=middle;whiteSpace=wrap;rounded=0;" vertex="1" parent="WIyWlLk6GJQsqaUBKTNV-1">
          <mxGeometry x="-710" y="1300" width="60" height="30" as="geometry" />
        </mxCell>
        <mxCell id="kydSZznh4QnMIO99EbYt-79" value="here" style="text;html=1;align=center;verticalAlign=middle;whiteSpace=wrap;rounded=0;" vertex="1" parent="WIyWlLk6GJQsqaUBKTNV-1">
          <mxGeometry x="-550" y="1300" width="60" height="30" as="geometry" />
        </mxCell>
        <mxCell id="kydSZznh4QnMIO99EbYt-80" value="Last" style="text;html=1;align=center;verticalAlign=middle;whiteSpace=wrap;rounded=0;" vertex="1" parent="WIyWlLk6GJQsqaUBKTNV-1">
          <mxGeometry x="-390" y="1300" width="60" height="30" as="geometry" />
        </mxCell>
        <mxCell id="kydSZznh4QnMIO99EbYt-81" style="edgeStyle=orthogonalEdgeStyle;rounded=0;orthogonalLoop=1;jettySize=auto;html=1;" edge="1" parent="WIyWlLk6GJQsqaUBKTNV-1" source="kydSZznh4QnMIO99EbYt-73">
          <mxGeometry relative="1" as="geometry">
            <mxPoint x="-560" y="900" as="targetPoint" />
            <Array as="points">
              <mxPoint x="-740" y="1370" />
              <mxPoint x="-740" y="900" />
              <mxPoint x="-562" y="900" />
            </Array>
          </mxGeometry>
        </mxCell>
        <mxCell id="kydSZznh4QnMIO99EbYt-83" value="" style="endArrow=classic;html=1;rounded=0;exitX=0.5;exitY=1;exitDx=0;exitDy=0;" edge="1" parent="WIyWlLk6GJQsqaUBKTNV-1" source="kydSZznh4QnMIO99EbYt-72">
          <mxGeometry width="50" height="50" relative="1" as="geometry">
            <mxPoint x="-640" y="1300" as="sourcePoint" />
            <mxPoint x="-560" y="900" as="targetPoint" />
            <Array as="points">
              <mxPoint x="-500" y="1420" />
              <mxPoint x="-740" y="1420" />
              <mxPoint x="-740" y="900" />
            </Array>
          </mxGeometry>
        </mxCell>
        <mxCell id="kydSZznh4QnMIO99EbYt-84" value="" style="endArrow=classic;html=1;rounded=0;exitX=0.5;exitY=1;exitDx=0;exitDy=0;entryX=0;entryY=0.5;entryDx=0;entryDy=0;" edge="1" parent="WIyWlLk6GJQsqaUBKTNV-1" source="kydSZznh4QnMIO99EbYt-74" target="kydSZznh4QnMIO99EbYt-54">
          <mxGeometry width="50" height="50" relative="1" as="geometry">
            <mxPoint x="-570" y="1270" as="sourcePoint" />
            <mxPoint x="-730" y="840" as="targetPoint" />
            <Array as="points">
              <mxPoint x="-340" y="1420" />
              <mxPoint x="-740" y="1420" />
              <mxPoint x="-740" y="900" />
            </Array>
          </mxGeometry>
        </mxCell>
        <mxCell id="kydSZznh4QnMIO99EbYt-85" value="" style="endArrow=classic;html=1;rounded=0;exitX=1;exitY=0.5;exitDx=0;exitDy=0;" edge="1" parent="WIyWlLk6GJQsqaUBKTNV-1" source="kydSZznh4QnMIO99EbYt-57">
          <mxGeometry width="50" height="50" relative="1" as="geometry">
            <mxPoint x="-340" y="1150" as="sourcePoint" />
            <mxPoint x="-260" y="1484.8" as="targetPoint" />
            <Array as="points">
              <mxPoint x="-260" y="1020" />
            </Array>
          </mxGeometry>
        </mxCell>
        <mxCell id="kydSZznh4QnMIO99EbYt-86" value="Exit Loop" style="text;html=1;align=center;verticalAlign=middle;whiteSpace=wrap;rounded=0;" vertex="1" parent="WIyWlLk6GJQsqaUBKTNV-1">
          <mxGeometry x="-420" y="1000" width="60" height="30" as="geometry" />
        </mxCell>
      </root>
    </mxGraphModel>
  </diagram>
</mxfile>
